<?xml version="1.0" standalone="no"?>
<svg xmlns:xlink="http://www.w3.org/1999/xlink" id="wave" style="transform:rotate(0deg); transition: 0.3s" viewBox="0 0 1440 240" version="1.1" xmlns="http://www.w3.org/2000/svg"><defs><linearGradient id="sw-gradient-0" x1="0" x2="0" y1="1" y2="0"><stop stop-color="rgba(0, 80, 200, 1)" offset="0%"/><stop stop-color="rgba(176, 202, 240, 1)" offset="100%"/></linearGradient></defs><path style="transform:translate(0, 0px); opacity:1" fill="url(#sw-gradient-0)" d="M0,120L34.3,120C68.6,120,137,120,206,124C274.3,128,343,136,411,128C480,120,549,96,617,96C685.7,96,754,120,823,116C891.4,112,960,80,1029,80C1097.1,80,1166,112,1234,124C1302.9,136,1371,128,1440,108C1508.6,88,1577,56,1646,68C1714.3,80,1783,136,1851,132C1920,128,1989,64,2057,60C2125.7,56,2194,112,2263,140C2331.4,168,2400,168,2469,176C2537.1,184,2606,200,2674,192C2742.9,184,2811,152,2880,144C2948.6,136,3017,152,3086,164C3154.3,176,3223,184,3291,168C3360,152,3429,112,3497,92C3565.7,72,3634,72,3703,76C3771.4,80,3840,88,3909,104C3977.1,120,4046,144,4114,140C4182.9,136,4251,104,4320,80C4388.6,56,4457,40,4526,64C4594.3,88,4663,152,4731,168C4800,184,4869,152,4903,136L4937.1,120L4937.1,240L4902.9,240C4868.6,240,4800,240,4731,240C4662.9,240,4594,240,4526,240C4457.1,240,4389,240,4320,240C4251.4,240,4183,240,4114,240C4045.7,240,3977,240,3909,240C3840,240,3771,240,3703,240C3634.3,240,3566,240,3497,240C3428.6,240,3360,240,3291,240C3222.9,240,3154,240,3086,240C3017.1,240,2949,240,2880,240C2811.4,240,2743,240,2674,240C2605.7,240,2537,240,2469,240C2400,240,2331,240,2263,240C2194.3,240,2126,240,2057,240C1988.6,240,1920,240,1851,240C1782.9,240,1714,240,1646,240C1577.1,240,1509,240,1440,240C1371.4,240,1303,240,1234,240C1165.7,240,1097,240,1029,240C960,240,891,240,823,240C754.3,240,686,240,617,240C548.6,240,480,240,411,240C342.9,240,274,240,206,240C137.1,240,69,240,34,240L0,240Z"/></svg>